# xmcd
#
# Track frame offsets: 
#        150
#        13065
#        34060
#        61070
#        79197
#        94665
#        105777
#        116745
#        132525
#        150350
#        169177
#        188642
#        201840
#        218717
#        238112
#        250335
#
# Disc length: 3533 seconds
#
# Revision: 3
# Processed by: cddbd v1.5.2PL0 Copyright (c) Steve Scherf et al.
# Submitted via: ExactAudioCopy v0.99pb5
#
DISCID=ce0dcb10
DTITLE=Various Artist - When A Man Loves A Woman Vol. 1
DYEAR=1991
DGENRE=Pop
TTITLE0=Percy Sledge - When a man loves a woman
TTITLE1=Gladys Knight and The Pips - Midnight train to Georgia
TTITLE2=Teddy Pendergrass - Turn off the lights
TTITLE3=Johnny Nash - Rock me baby
TTITLE4=Barry White - You're the first, the last, my everything
TTITLE5=Drifters - Save the last dance for me
TTITLE6=Don Covay and The Goodtimers - Mercy, mercy
TTITLE7=Aretha Franklin - Spanish Harlem
TTITLE8=Lou Rawls - Lady Love
TTITLE9=O'Jays - Brandy
TTITLE10=Rose Royce - Love don't live here anymore
TTITLE11=Ben E. King - Stand by me
TTITLE12=Patti Austin and James Ingram - Baby, come to me
TTITLE13=Kool and The Gang - Joanna
TTITLE14=R.B. Greaves - Take a letter, Maria
TTITLE15=Stylistics - Can't give you anything (but my love)
EXTD=YEAR: 1991
EXTT0=
EXTT1=
EXTT2=
EXTT3=
EXTT4=
EXTT5=
EXTT6=
EXTT7=
EXTT8=
EXTT9=
EXTT10=
EXTT11=
EXTT12=
EXTT13=
EXTT14=
EXTT15=
PLAYORDER=
